<?xml version="1.0" encoding="UTF-8" standalone="no"?>
<!-- Created with Inkscape (http://www.inkscape.org/) -->

<svg
   xmlns:dc="http://purl.org/dc/elements/1.1/"
   xmlns:cc="http://creativecommons.org/ns#"
   xmlns:rdf="http://www.w3.org/1999/02/22-rdf-syntax-ns#"
   xmlns:svg="http://www.w3.org/2000/svg"
   xmlns="http://www.w3.org/2000/svg"
   xmlns:sodipodi="http://sodipodi.sourceforge.net/DTD/sodipodi-0.dtd"
   xmlns:inkscape="http://www.inkscape.org/namespaces/inkscape"
   width="29.404436mm"
   height="34.788403mm"
   viewBox="0 0 29.404436 34.788403"
   version="1.1"
   id="svg8"
   inkscape:version="0.92.1 r15371">
  <defs
     id="defs2" />
  <sodipodi:namedview
     id="base"
     pagecolor="#ffffff"
     bordercolor="#666666"
     borderopacity="1.0"
     inkscape:pageopacity="0.0"
     inkscape:pageshadow="2"
     inkscape:zoom="1.979899"
     inkscape:cx="-124.77148"
     inkscape:cy="-39.885242"
     inkscape:document-units="mm"
     inkscape:current-layer="layer1"
     showgrid="false"
     fit-margin-top="0"
     fit-margin-left="0"
     fit-margin-right="0"
     fit-margin-bottom="0"
     inkscape:window-width="1680"
     inkscape:window-height="988"
     inkscape:window-x="-8"
     inkscape:window-y="-8"
     inkscape:window-maximized="1"
     showguides="true"
     inkscape:guide-bbox="true">
    <sodipodi:guide
       position="29.399648,-6.0135675"
       orientation="1,0"
       id="guide4652"
       inkscape:locked="false" />
  </sodipodi:namedview>
  <metadata
     id="metadata5">
    <rdf:RDF>
      <cc:Work
         rdf:about="">
        <dc:format>image/svg+xml</dc:format>
        <dc:type
           rdf:resource="http://purl.org/dc/dcmitype/StillImage" />
        <dc:title></dc:title>
      </cc:Work>
    </rdf:RDF>
  </metadata>
  <g
     inkscape:label="Layer 1"
     inkscape:groupmode="layer"
     id="layer1"
     transform="translate(-87.828605,-82.353968)">
    <text
       xml:space="preserve"
       style="font-style:normal;font-weight:normal;font-size:10.58333302px;line-height:6.61458302px;font-family:sans-serif;letter-spacing:0px;word-spacing:0px;fill:#e6e6e6;fill-opacity:1;stroke:none;stroke-width:0.26458332px;stroke-linecap:butt;stroke-linejoin:miter;stroke-opacity:1"
       x="47.305351"
       y="59.454037"
       id="text4487"><tspan
         sodipodi:role="line"
         id="tspan4485"
         x="47.305351"
         y="59.454037"
         style="font-style:normal;font-variant:normal;font-weight:normal;font-stretch:normal;line-height:9.26041698px;font-family:'Franklin Gothic Book';-inkscape-font-specification:'Franklin Gothic Book, ';fill:#e6e6e6;stroke-width:0.26458332px"
         dy="0">GUIA DE</tspan><tspan
         sodipodi:role="line"
         x="47.305351"
         y="68.714455"
         style="font-style:normal;font-variant:normal;font-weight:normal;font-stretch:normal;line-height:9.26041698px;font-family:'Franklin Gothic Book';-inkscape-font-specification:'Franklin Gothic Book, ';letter-spacing:0.00264583px;fill:#e6e6e6;stroke-width:0.26458332px"
         id="tspan4489"
         dx="0">ESTILO</tspan></text>
    <g
       id="g4685"
       style="fill:#f9f9f9">
      <g
         transform="matrix(0.99183157,0,0,0.99183157,-1.6138879,0.58652643)"
         aria-label="GUIA"
         style="font-style:normal;font-weight:normal;font-size:14.87536335px;line-height:9.29710197px;font-family:sans-serif;letter-spacing:0px;word-spacing:0px;fill:#f9f9f9;fill-opacity:1;stroke:none;stroke-width:0.37188408px;stroke-linecap:butt;stroke-linejoin:miter;stroke-opacity:1"
         id="text4495">
        <path
           d="m 98.147022,87.561523 v 5.127933 h -0.762653 l -0.341378,-1.242034 q -0.915183,1.307405 -2.72376,1.307405 -1.961108,0 -3.050612,-1.474463 -1.089504,-1.474462 -1.089504,-3.580837 0,-2.251642 1.154875,-3.755157 1.154874,-1.503516 3.137771,-1.503516 2.738288,0 3.573574,2.876291 l -1.176664,0.283271 q -0.254218,-1.104031 -0.951501,-1.605203 -0.697282,-0.501172 -1.525305,-0.501172 -1.467199,0 -2.164482,1.183928 -0.697283,1.183928 -0.697283,2.970715 0,1.92479 0.77718,3.014295 0.784443,1.08224 2.128165,1.08224 1.045924,0 1.743206,-0.690019 0.704546,-0.697283 0.704546,-1.917527 0,-0.225164 -0.01453,-0.537489 h -2.455016 v -1.038661 z"
           style="font-style:normal;font-variant:normal;font-weight:normal;font-stretch:normal;line-height:13.01594353px;font-family:'Franklin Gothic Book';-inkscape-font-specification:'Franklin Gothic Book, ';letter-spacing:0px;fill:#f9f9f9;stroke-width:0.37188408px"
           id="path4560"
           inkscape:connector-curvature="0" />
        <path
           d="m 106.07135,82.644228 h 1.0314 v 6.471655 q 0,1.94658 -0.95877,2.796394 -0.9515,0.84255 -2.49859,0.84255 -1.72142,0 -2.54944,-0.871604 -0.82803,-0.871603 -0.82803,-2.76734 v -6.471655 h 1.24204 v 6.471655 q 0,1.154874 0.26874,1.626993 0.26875,0.472118 0.8135,0.697282 0.54475,0.225164 1.14035,0.225164 1.14761,0 1.7432,-0.602859 0.5956,-0.602859 0.5956,-1.94658 z"
           style="font-style:normal;font-variant:normal;font-weight:normal;font-stretch:normal;line-height:13.01594353px;font-family:'Franklin Gothic Book';-inkscape-font-specification:'Franklin Gothic Book, ';letter-spacing:0px;fill:#f9f9f9;stroke-width:0.37188408px"
           id="path4562"
           inkscape:connector-curvature="0" />
        <path
           d="m 110.66906,92.558716 h -1.24204 v -9.914488 h 1.24204 z"
           style="font-style:normal;font-variant:normal;font-weight:normal;font-stretch:normal;line-height:13.01594353px;font-family:'Franklin Gothic Book';-inkscape-font-specification:'Franklin Gothic Book, ';letter-spacing:0px;fill:#f9f9f9;stroke-width:0.37188408px"
           id="path4564"
           inkscape:connector-curvature="0" />
        <path
           d="m 119.82089,92.558716 h -1.27109 l -1.00234,-2.898081 h -3.668 l -0.88613,2.898081 h -1.03866 l 3.21767,-9.914488 h 1.41636 z m -2.53491,-3.827791 -1.52531,-4.764765 -1.53983,4.764765 z"
           style="font-style:normal;font-variant:normal;font-weight:normal;font-stretch:normal;line-height:13.01594353px;font-family:'Franklin Gothic Book';-inkscape-font-specification:'Franklin Gothic Book, ';letter-spacing:0px;fill:#f9f9f9;stroke-width:0.37188408px"
           id="path4566"
           inkscape:connector-curvature="0" />
      </g>
      <g
         transform="matrix(1.0362685,0,0,1.0362685,-6.3025156,-3.5352136)"
         aria-label="DE 
ESTILO"
         style="font-style:normal;font-weight:normal;font-size:10.08301449px;line-height:6.30188417px;font-family:sans-serif;letter-spacing:0px;word-spacing:0px;fill:#f9f9f9;fill-opacity:1;stroke:none;stroke-width:0.25207534px;stroke-linecap:butt;stroke-linejoin:miter;stroke-opacity:1"
         id="text4495-5">
        <path
           d="m 90.836613,101.32116 v -6.720369 h 2.254893 q 1.422847,0 2.215506,0.969899 0.792659,0.9699 0.792659,2.373053 0,1.422848 -0.772966,2.402597 -0.772965,0.97482 -1.959492,0.97482 z m 0.841892,-0.71389 h 1.363767 q 1.083137,0 1.644398,-0.748345 0.561262,-0.748348 0.561262,-1.974262 0,-0.994516 -0.536645,-1.787175 -0.531722,-0.792659 -1.669015,-0.792659 h -1.363767 z"
           style="font-style:normal;font-variant:normal;font-weight:normal;font-stretch:normal;line-height:8.82263756px;font-family:'Franklin Gothic Book';-inkscape-font-specification:'Franklin Gothic Book, ';letter-spacing:0.00252075px;fill:#f9f9f9;stroke-width:0.25207534px"
           id="path4569"
           inkscape:connector-curvature="0" />
        <path
           d="m 101.70496,100.58266 v 0.7385 h -4.347315 v -6.720369 h 4.253775 v 0.738502 h -3.411883 v 2.136732 h 2.707843 v 0.684346 h -2.707843 v 2.422289 z"
           style="font-style:normal;font-variant:normal;font-weight:normal;font-stretch:normal;line-height:8.82263756px;font-family:'Franklin Gothic Book';-inkscape-font-specification:'Franklin Gothic Book, ';letter-spacing:0.00252075px;fill:#f9f9f9;stroke-width:0.25207534px"
           id="path4571"
           inkscape:connector-curvature="0" />
        <path
           d="m 95.183928,109.40529 v 0.73851 h -4.347315 v -6.72037 h 4.253772 v 0.7385 h -3.41188 v 2.13673 h 2.707841 v 0.68435 h -2.707841 v 2.42228 z"
           style="font-style:normal;font-variant:normal;font-weight:normal;font-stretch:normal;line-height:8.82263756px;font-family:'Franklin Gothic Book';-inkscape-font-specification:'Franklin Gothic Book, ';letter-spacing:0.00252075px;fill:#f9f9f9;stroke-width:0.25207534px"
           id="path4573"
           inkscape:connector-curvature="0" />
        <path
           d="m 95.634473,108.35662 0.758196,-0.17232 q 0.457871,1.37362 1.984109,1.37362 0.797582,0 1.201296,-0.33479 0.403715,-0.33971 0.403715,-0.90589 0,-0.42834 -0.310171,-0.68927 -0.305248,-0.26094 -0.708962,-0.35941 l -1.344074,-0.33479 q -0.521875,-0.13293 -0.856662,-0.32001 -0.329864,-0.19201 -0.561262,-0.58588 -0.231397,-0.39387 -0.231397,-0.90097 0,-0.8419 0.635112,-1.33915 0.635111,-0.50219 1.629628,-0.50219 1.831489,0 2.407519,1.65917 l -0.763122,0.22648 q -0.13293,-0.59081 -0.625265,-0.89113 -0.492334,-0.30525 -1.048673,-0.30525 -0.551414,0 -0.984669,0.29048 -0.428331,0.29048 -0.428331,0.8222 0,0.74343 1.092983,1.00436 l 1.255453,0.30033 q 1.723174,0.41356 1.723174,1.8561 0,0.87143 -0.64988,1.45239 -0.644962,0.57603 -1.821642,0.57603 -2.087499,0 -2.757075,-1.92011 z"
           style="font-style:normal;font-variant:normal;font-weight:normal;font-stretch:normal;line-height:8.82263756px;font-family:'Franklin Gothic Book';-inkscape-font-specification:'Franklin Gothic Book, ';letter-spacing:0.00252075px;fill:#f9f9f9;stroke-width:0.25207534px"
           id="path4575"
           inkscape:connector-curvature="0" />
        <path
           d="m 103.95253,110.1438 h -0.83697 v -5.98187 h -1.92503 v -0.7385 h 4.69195 v 0.7385 h -1.92995 z"
           style="font-style:normal;font-variant:normal;font-weight:normal;font-stretch:normal;line-height:8.82263756px;font-family:'Franklin Gothic Book';-inkscape-font-specification:'Franklin Gothic Book, ';letter-spacing:0.00252075px;fill:#f9f9f9;stroke-width:0.25207534px"
           id="path4577"
           inkscape:connector-curvature="0" />
        <path
           d="m 107.6771,110.1438 h -0.84189 v -6.72037 h 0.84189 z"
           style="font-style:normal;font-variant:normal;font-weight:normal;font-stretch:normal;line-height:8.82263756px;font-family:'Franklin Gothic Book';-inkscape-font-specification:'Franklin Gothic Book, ';letter-spacing:0.00252075px;fill:#f9f9f9;stroke-width:0.25207534px"
           id="path4579"
           inkscape:connector-curvature="0" />
        <path
           d="m 113.3267,109.40529 v 0.73851 h -3.96822 v -6.72037 h 0.86159 v 5.98186 z"
           style="font-style:normal;font-variant:normal;font-weight:normal;font-stretch:normal;line-height:8.82263756px;font-family:'Franklin Gothic Book';-inkscape-font-specification:'Franklin Gothic Book, ';letter-spacing:0.00252075px;fill:#f9f9f9;stroke-width:0.25207534px"
           id="path4581"
           inkscape:connector-curvature="0" />
        <path
           d="m 116.38662,110.27673 q -1.29484,0 -2.01858,-1.00437 -0.72373,-1.00928 -0.72373,-2.47152 0,-1.52623 0.7582,-2.52075 0.75819,-0.99452 2.00872,-0.99452 1.24561,0 1.99888,0.97975 0.75327,0.97482 0.75327,2.46167 0,1.42777 -0.73357,2.49122 -0.72866,1.05852 -2.04319,1.05852 z m 0.0197,-0.68435 q 0.88128,0 1.37854,-0.8025 0.49726,-0.80251 0.49726,-2.06781 0,-1.29976 -0.51696,-2.02349 -0.51202,-0.72374 -1.36376,-0.72374 -0.86159,0 -1.36869,0.78282 -0.50711,0.78281 -0.50711,2.04811 0,1.23576 0.51203,2.01365 0.51203,0.77296 1.36869,0.77296 z"
           style="font-style:normal;font-variant:normal;font-weight:normal;font-stretch:normal;line-height:8.82263756px;font-family:'Franklin Gothic Book';-inkscape-font-specification:'Franklin Gothic Book, ';letter-spacing:0.00252075px;fill:#f9f9f9;stroke-width:0.25207534px"
           id="path4583"
           inkscape:connector-curvature="0" />
      </g>
      <g
         transform="translate(-2.542547)"
         aria-label="Portal de Compras"
         style="font-style:normal;font-weight:normal;font-size:3.79647541px;line-height:2.37279701px;font-family:sans-serif;letter-spacing:0px;word-spacing:0px;fill:#f9f9f9;fill-opacity:1;stroke:none;stroke-width:0.09491188px;stroke-linecap:butt;stroke-linejoin:miter;stroke-opacity:1"
         id="text4487-2">
        <path
           d="m 90.688143,116.51025 h -0.316991 v -2.53037 h 0.897214 q 0.420801,0 0.621005,0.22987 0.200205,0.22801 0.200205,0.5209 0,0.32626 -0.218742,0.53944 -0.216889,0.21318 -0.569101,0.21318 h -0.61359 z m 0,-1.29021 h 0.582077 q 0.224303,0 0.36148,-0.13347 0.137178,-0.13533 0.137178,-0.35592 0,-0.18908 -0.122348,-0.33738 -0.122347,-0.1483 -0.354065,-0.1483 h -0.604322 z"
           style="font-style:normal;font-variant:normal;font-weight:normal;font-stretch:normal;line-height:3.32191586px;font-family:'Franklin Gothic Book';-inkscape-font-specification:'Franklin Gothic Book, ';letter-spacing:0px;fill:#f9f9f9;stroke-width:0.09491188px"
           id="path4586"
           inkscape:connector-curvature="0" />
        <path
           d="m 93.085039,116.5603 q -0.38558,0 -0.602468,-0.28548 -0.215035,-0.28548 -0.215035,-0.70813 0,-0.44675 0.242841,-0.71369 0.242841,-0.26694 0.604322,-0.26694 0.387433,0 0.609883,0.28177 0.224303,0.27991 0.224303,0.70071 0,0.43749 -0.240987,0.71555 -0.240987,0.27621 -0.622859,0.27621 z m 0.02225,-0.23914 q 0.222449,0 0.372603,-0.18352 0.150154,-0.18352 0.150154,-0.57095 0,-0.38929 -0.157569,-0.56354 -0.157569,-0.17611 -0.368896,-0.17611 -0.216888,0 -0.367042,0.17796 -0.150153,0.17611 -0.150153,0.55983 0,0.40598 0.150153,0.58208 0.150154,0.17425 0.37075,0.17425 z"
           style="font-style:normal;font-variant:normal;font-weight:normal;font-stretch:normal;line-height:3.32191586px;font-family:'Franklin Gothic Book';-inkscape-font-specification:'Franklin Gothic Book, ';letter-spacing:0px;fill:#f9f9f9;stroke-width:0.09491188px"
           id="path4588"
           inkscape:connector-curvature="0" />
        <path
           d="M 94.677408,116.51025 H 94.38637 v -1.87229 h 0.255817 v 0.43749 q 0.135323,-0.30958 0.270647,-0.40041 0.137177,-0.0927 0.279916,-0.0927 0.04449,0 0.114932,0.007 v 0.27807 h -0.05932 q -0.240987,0 -0.400409,0.17981 -0.159423,0.17981 -0.170545,0.4727 z"
           style="font-style:normal;font-variant:normal;font-weight:normal;font-stretch:normal;line-height:3.32191586px;font-family:'Franklin Gothic Book';-inkscape-font-specification:'Franklin Gothic Book, ';letter-spacing:0px;fill:#f9f9f9;stroke-width:0.09491188px"
           id="path4590"
           inkscape:connector-curvature="0" />
        <path
           d="m 96.614575,116.31004 v 0.22987 q -0.153861,0.0204 -0.26694,0.0204 -0.543148,0 -0.543148,-0.56725 v -1.12708 h -0.331821 v -0.22801 h 0.331821 l 0.01298,-0.47085 0.270647,-0.0259 v 0.4968 h 0.418947 v 0.22801 H 96.08811 v 1.17528 q 0,0.28918 0.300307,0.28918 0.100103,0 0.226158,-0.0204 z"
           style="font-style:normal;font-variant:normal;font-weight:normal;font-stretch:normal;line-height:3.32191586px;font-family:'Franklin Gothic Book';-inkscape-font-specification:'Franklin Gothic Book, ';letter-spacing:0px;fill:#f9f9f9;stroke-width:0.09491188px"
           id="path4592"
           inkscape:connector-curvature="0" />
        <path
           d="m 98.403441,116.51025 h -0.289185 q -0.01668,-0.089 -0.03337,-0.33739 -0.19279,0.38744 -0.656227,0.38744 -0.315137,0 -0.483828,-0.16684 -0.168691,-0.16684 -0.168691,-0.40041 0,-0.28362 0.240987,-0.46529 0.240987,-0.18352 0.819357,-0.18352 0.07786,0 0.248402,0.007 0,-0.22245 -0.03522,-0.32069 -0.03337,-0.10011 -0.144593,-0.15943 -0.111225,-0.0593 -0.292892,-0.0593 -0.443046,0 -0.515342,0.33739 l -0.268793,-0.0464 q 0.09825,-0.51719 0.826771,-0.51719 0.387434,0 0.54871,0.17239 0.16313,0.17055 0.16313,0.5932 v 0.79526 q 0,0.19835 0.04078,0.36334 z m -0.322552,-0.93615 q -0.17796,-0.0111 -0.270647,-0.0111 -0.344797,0 -0.535733,0.11308 -0.190936,0.11308 -0.190936,0.32997 0,0.13717 0.101956,0.23357 0.10381,0.0964 0.298453,0.0964 0.263232,0 0.431923,-0.19093 0.170545,-0.19094 0.170545,-0.44861 0,-0.0519 -0.0056,-0.12235 z"
           style="font-style:normal;font-variant:normal;font-weight:normal;font-stretch:normal;line-height:3.32191586px;font-family:'Franklin Gothic Book';-inkscape-font-specification:'Franklin Gothic Book, ';letter-spacing:0px;fill:#f9f9f9;stroke-width:0.09491188px"
           id="path4594"
           inkscape:connector-curvature="0" />
        <path
           d="m 99.237628,116.51025 h -0.291039 v -2.53037 h 0.291039 z"
           style="font-style:normal;font-variant:normal;font-weight:normal;font-stretch:normal;line-height:3.32191586px;font-family:'Franklin Gothic Book';-inkscape-font-specification:'Franklin Gothic Book, ';letter-spacing:0px;fill:#f9f9f9;stroke-width:0.09491188px"
           id="path4596"
           inkscape:connector-curvature="0" />
        <path
           d="m 102.23328,113.97988 v 2.53037 h -0.26508 v -0.3207 q -0.1965,0.37075 -0.59135,0.37075 -0.32811,0 -0.53944,-0.27436 -0.21132,-0.27621 -0.21132,-0.69701 0,-0.43007 0.20947,-0.71554 0.20947,-0.28733 0.55612,-0.28733 0.33739,0 0.55057,0.30772 v -0.9139 z m -0.29103,1.38104 q 0,-0.24655 -0.15016,-0.39485 -0.15015,-0.1483 -0.35036,-0.1483 -0.21688,0 -0.35777,0.19279 -0.13903,0.19279 -0.13903,0.5413 0,0.37631 0.12791,0.57281 0.12976,0.19649 0.35406,0.19649 0.20392,0 0.35963,-0.17054 0.15572,-0.17055 0.15572,-0.40041 z"
           style="font-style:normal;font-variant:normal;font-weight:normal;font-stretch:normal;line-height:3.32191586px;font-family:'Franklin Gothic Book';-inkscape-font-specification:'Franklin Gothic Book, ';letter-spacing:0px;fill:#f9f9f9;stroke-width:0.09491188px"
           id="path4598"
           inkscape:connector-curvature="0" />
        <path
           d="m 104.05366,115.95227 0.27065,0.0556 q -0.0742,0.23913 -0.28918,0.3967 -0.21504,0.15572 -0.50608,0.15572 -0.38372,0 -0.621,-0.2688 -0.23728,-0.27064 -0.23728,-0.70813 0,-0.44675 0.24655,-0.72111 0.24655,-0.2762 0.61915,-0.2762 0.36704,0 0.58949,0.25396 0.2243,0.25396 0.22987,0.76004 h -1.36066 q 0,0.4245 0.17796,0.5728 0.17796,0.1483 0.37632,0.1483 0.35777,0 0.50421,-0.36889 z m -0.0167,-0.5691 q -0.004,-0.15757 -0.0519,-0.27992 -0.0482,-0.12235 -0.16313,-0.20762 -0.11494,-0.0871 -0.27621,-0.0871 -0.21689,0 -0.3689,0.15571 -0.15015,0.15572 -0.16869,0.41895 z"
           style="font-style:normal;font-variant:normal;font-weight:normal;font-stretch:normal;line-height:3.32191586px;font-family:'Franklin Gothic Book';-inkscape-font-specification:'Franklin Gothic Book, ';letter-spacing:0px;fill:#f9f9f9;stroke-width:0.09491188px"
           id="path4600"
           inkscape:connector-curvature="0" />
        <path
           d="m 107.28845,115.65938 0.28919,0.0649 q -0.20762,0.83604 -0.938,0.83604 -0.48012,0 -0.75447,-0.38744 -0.2725,-0.38743 -0.2725,-0.95282 0,-0.58393 0.28547,-0.938 0.28548,-0.35406 0.7656,-0.35406 0.71184,0 0.9139,0.81379 l -0.29845,0.0593 q -0.16313,-0.60432 -0.6173,-0.60432 -0.33553,0 -0.52091,0.28177 -0.18352,0.27991 -0.18352,0.78784 0,0.46529 0.18909,0.74706 0.18908,0.27992 0.50051,0.27992 0.48383,0 0.64139,-0.63398 z"
           style="font-style:normal;font-variant:normal;font-weight:normal;font-stretch:normal;line-height:3.32191586px;font-family:'Franklin Gothic Book';-inkscape-font-specification:'Franklin Gothic Book, ';letter-spacing:0px;fill:#f9f9f9;stroke-width:0.09491188px"
           id="path4602"
           inkscape:connector-curvature="0" />
        <path
           d="m 108.61945,116.5603 q -0.38558,0 -0.60247,-0.28548 -0.21504,-0.28548 -0.21504,-0.70813 0,-0.44675 0.24284,-0.71369 0.24284,-0.26694 0.60433,-0.26694 0.38743,0 0.60988,0.28177 0.2243,0.27991 0.2243,0.70071 0,0.43749 -0.24099,0.71555 -0.24098,0.27621 -0.62285,0.27621 z m 0.0222,-0.23914 q 0.22245,0 0.3726,-0.18352 0.15016,-0.18352 0.15016,-0.57095 0,-0.38929 -0.15757,-0.56354 -0.15757,-0.17611 -0.3689,-0.17611 -0.21689,0 -0.36704,0.17796 -0.15015,0.17611 -0.15015,0.55983 0,0.40598 0.15015,0.58208 0.15015,0.17425 0.37075,0.17425 z"
           style="font-style:normal;font-variant:normal;font-weight:normal;font-stretch:normal;line-height:3.32191586px;font-family:'Franklin Gothic Book';-inkscape-font-specification:'Franklin Gothic Book, ';letter-spacing:0px;fill:#f9f9f9;stroke-width:0.09491188px"
           id="path4604"
           inkscape:connector-curvature="0" />
        <path
           d="m 112.4289,116.51025 h -0.28363 v -1.16416 q 0,-0.17981 -0.0259,-0.26879 -0.0241,-0.0908 -0.12049,-0.16498 -0.0964,-0.076 -0.21689,-0.076 -0.16684,0 -0.32255,0.15386 -0.15386,0.15201 -0.15386,0.46529 v 1.05479 h -0.28177 v -1.23275 q 0,-0.24654 -0.11864,-0.3485 -0.11679,-0.10196 -0.24655,-0.10196 -0.18538,0 -0.32255,0.15943 -0.13718,0.15942 -0.13718,0.40411 v 1.11967 h -0.27806 v -1.87229 h 0.25025 v 0.35963 q 0.20948,-0.41153 0.57652,-0.41153 0.20206,0 0.34294,0.13161 0.14089,0.13162 0.18167,0.31699 0.19279,-0.4486 0.59134,-0.4486 0.19094,0 0.33368,0.10937 0.14459,0.10937 0.18723,0.25211 0.0445,0.14088 0.0445,0.39855 z"
           style="font-style:normal;font-variant:normal;font-weight:normal;font-stretch:normal;line-height:3.32191586px;font-family:'Franklin Gothic Book';-inkscape-font-specification:'Franklin Gothic Book, ';letter-spacing:0px;fill:#f9f9f9;stroke-width:0.09491188px"
           id="path4606"
           inkscape:connector-curvature="0" />
        <path
           d="m 113.27421,117.14237 h -0.29104 v -2.50441 h 0.26138 v 0.36334 q 0.19835,-0.41524 0.59134,-0.41524 0.33182,0 0.53573,0.27806 0.20392,0.27621 0.20392,0.70071 0,0.45788 -0.20948,0.72667 -0.20947,0.2688 -0.53758,0.2688 -0.35222,0 -0.55427,-0.33553 z m 0,-1.83891 v 0.52646 q 0.0278,0.21318 0.17981,0.35221 0.15201,0.13903 0.31699,0.13903 0.19094,0 0.33738,-0.16683 0.1483,-0.16684 0.1483,-0.57652 0,-0.35406 -0.13347,-0.545 -0.13347,-0.19279 -0.35406,-0.19279 -0.17426,0 -0.31329,0.13532 -0.13717,0.13533 -0.18166,0.32812 z"
           style="font-style:normal;font-variant:normal;font-weight:normal;font-stretch:normal;line-height:3.32191586px;font-family:'Franklin Gothic Book';-inkscape-font-specification:'Franklin Gothic Book, ';letter-spacing:0px;fill:#f9f9f9;stroke-width:0.09491188px"
           id="path4608"
           inkscape:connector-curvature="0" />
        <path
           d="m 115.30591,116.51025 h -0.29103 v -1.87229 h 0.25581 v 0.43749 q 0.13533,-0.30958 0.27065,-0.40041 0.13718,-0.0927 0.27992,-0.0927 0.0445,0 0.11493,0.007 v 0.27807 h -0.0593 q -0.24099,0 -0.40041,0.17981 -0.15942,0.17981 -0.17055,0.4727 z"
           style="font-style:normal;font-variant:normal;font-weight:normal;font-stretch:normal;line-height:3.32191586px;font-family:'Franklin Gothic Book';-inkscape-font-specification:'Franklin Gothic Book, ';letter-spacing:0px;fill:#f9f9f9;stroke-width:0.09491188px"
           id="path4610"
           inkscape:connector-curvature="0" />
        <path
           d="m 117.73432,116.51025 h -0.28918 q -0.0167,-0.089 -0.0334,-0.33739 -0.19279,0.38744 -0.65623,0.38744 -0.31513,0 -0.48382,-0.16684 -0.16869,-0.16684 -0.16869,-0.40041 0,-0.28362 0.24098,-0.46529 0.24099,-0.18352 0.81936,-0.18352 0.0779,0 0.2484,0.007 0,-0.22245 -0.0352,-0.32069 -0.0334,-0.10011 -0.14459,-0.15943 -0.11123,-0.0593 -0.29289,-0.0593 -0.44305,0 -0.51535,0.33739 l -0.26879,-0.0464 q 0.0983,-0.51719 0.82677,-0.51719 0.38744,0 0.54871,0.17239 0.16313,0.17055 0.16313,0.5932 v 0.79526 q 0,0.19835 0.0408,0.36334 z m -0.32255,-0.93615 q -0.17796,-0.0111 -0.27065,-0.0111 -0.34479,0 -0.53573,0.11308 -0.19093,0.11308 -0.19093,0.32997 0,0.13717 0.10195,0.23357 0.10381,0.0964 0.29845,0.0964 0.26324,0 0.43193,-0.19093 0.17054,-0.19094 0.17054,-0.44861 0,-0.0519 -0.006,-0.12235 z"
           style="font-style:normal;font-variant:normal;font-weight:normal;font-stretch:normal;line-height:3.32191586px;font-family:'Franklin Gothic Book';-inkscape-font-specification:'Franklin Gothic Book, ';letter-spacing:0px;fill:#f9f9f9;stroke-width:0.09491188px"
           id="path4612"
           inkscape:connector-curvature="0" />
        <path
           d="m 118.02536,116.02456 0.27806,-0.0575 q 0.0927,0.35406 0.58579,0.35406 0.18167,0 0.30772,-0.0816 0.12606,-0.0816 0.12606,-0.22987 0,-0.22059 -0.3207,-0.27991 l -0.39485,-0.0742 q -0.23172,-0.0445 -0.3689,-0.17425 -0.13717,-0.12977 -0.13717,-0.34295 0,-0.23542 0.18722,-0.39299 0.18723,-0.15942 0.50422,-0.15942 0.60989,0 0.75262,0.47641 l -0.26693,0.0575 q -0.11494,-0.2929 -0.47271,-0.2929 -0.17796,0 -0.29289,0.0742 -0.11308,0.0723 -0.11308,0.20392 0,0.20762 0.29104,0.26137 l 0.36519,0.0649 q 0.5728,0.1038 0.5728,0.55427 0,0.25767 -0.21318,0.41709 -0.21318,0.15757 -0.56724,0.15757 -0.6655,0 -0.82307,-0.53574 z"
           style="font-style:normal;font-variant:normal;font-weight:normal;font-stretch:normal;line-height:3.32191586px;font-family:'Franklin Gothic Book';-inkscape-font-specification:'Franklin Gothic Book, ';letter-spacing:0px;fill:#f9f9f9;stroke-width:0.09491188px"
           id="path4614"
           inkscape:connector-curvature="0" />
      </g>
      <path
         inkscape:connector-curvature="0"
         id="path4546"
         d="m 87.834737,112.31673 h 29.272843 v 0.14046"
         style="fill:#f9f9f9;fill-rule:evenodd;stroke:#f2f2f2;stroke-width:0.25092274px;stroke-linecap:butt;stroke-linejoin:miter;stroke-opacity:1" />
    </g>
    <text
       xml:space="preserve"
       style="font-style:normal;font-weight:normal;font-size:10.58333302px;line-height:6.61458302px;font-family:sans-serif;letter-spacing:0px;word-spacing:0px;fill:#000000;fill-opacity:1;stroke:none;stroke-width:0.26458332px;stroke-linecap:butt;stroke-linejoin:miter;stroke-opacity:1"
       x="48.406349"
       y="129.03587"
       id="text4619" />
  </g>
</svg>
