<?xml version="1.0" encoding="UTF-8" standalone="no"?>
<svg
   xmlns:dc="http://purl.org/dc/elements/1.1/"
   xmlns:cc="http://creativecommons.org/ns#"
   xmlns:rdf="http://www.w3.org/1999/02/22-rdf-syntax-ns#"
   xmlns:svg="http://www.w3.org/2000/svg"
   xmlns="http://www.w3.org/2000/svg"
   id="svg8"
   version="1.1"
   viewBox="0 0 277.8125 2.5135419"
   height="2.5135419mm"
   width="277.8125mm">
  <defs
     id="defs2" />
  <metadata
     id="metadata5">
    <rdf:RDF>
      <cc:Work
         rdf:about="">
        <dc:format>image/svg+xml</dc:format>
        <dc:type
           rdf:resource="http://purl.org/dc/dcmitype/StillImage" />
        <dc:title></dc:title>
      </cc:Work>
    </rdf:RDF>
  </metadata>
  <g
     transform="translate(-2.6071729,-59.611569)"
     id="layer1">
    <g
       id="g4516">
      <path
         style="fill:#dad9d9;stroke-width:0.26458332"
         d="m 93.888421,61.728236 -1.984375,-2.116667 -1.984375,2.116667 -1.984375,-2.116667 -1.984375,2.116667 -1.984375,-2.116667 -1.984375,2.116667 -1.984375,-2.116667 -1.984375,2.116667 -1.984375,-2.116667 -1.984375,2.116667 -1.984375,-2.116667 -1.984375,2.116667 -1.984375,-2.116667 -1.984375,2.116667 -1.984374,-2.116667 -1.984375,2.116667 -1.984375,-2.116667 -1.984375,2.116667 -1.984375,-2.116667 -1.984375,2.116667 -1.984375,-2.116667 -1.984375,2.116667 -1.984375,-2.116667 -1.984375,2.116667 -1.984375,-2.116667 -1.984375,2.116667 -1.984375,-2.116667 -1.984375,2.116667 -1.984375,-2.116667 -1.984375,2.116667 -1.984375,-2.116667 -1.984375,2.116667 -1.984375,-2.116667 -1.984375,2.116667 -1.984375,-2.116667 -1.984375,2.116667 -1.984375,-2.116667 -1.984375,2.116667 -1.984375,-2.116667 -1.984375,2.116667 -1.984375,-2.116667 -1.984374,2.116667 -1.9843752,-2.116667 -1.984375,2.116667 -1.984375,-2.116667 -1.7197916,1.852083 -0.2645833,0.661459 1.9843749,-2.116667 1.984375,2.116667 1.984375,-2.116667 1.9843752,2.116667 1.984374,-2.116667 1.984375,2.116667 1.984375,-2.116667 1.984375,2.116667 1.984375,-2.116667 1.984375,2.116667 1.984375,-2.116667 1.984375,2.116667 1.984375,-2.116667 1.984375,2.116667 1.984375,-2.116667 1.984375,2.116667 1.984375,-2.116667 1.984375,2.116667 1.984375,-2.116667 1.984375,2.116667 1.984375,-2.116667 1.984375,2.116667 1.984375,-2.116667 1.984375,2.116667 1.984375,-2.116667 1.984375,2.116667 1.984375,-2.116667 1.984375,2.116667 1.984375,-2.116667 1.984375,2.116667 1.984375,-2.116667 1.984374,2.116667 1.984375,-2.116667 1.984375,2.116667 1.984375,-2.116667 1.984375,2.116667 1.984375,-2.116667 1.984375,2.116667 1.984375,-2.116667 1.984375,2.116667 1.984375,-2.116667 1.984375,2.116667 1.984375,-2.116667 1.984375,2.116667 1.984375,-2.116667 1.984375,2.116667 1.984375,-2.116667 1.984375,2.116667 -0.264583,-0.661459 -1.719792,-1.852083 z"
         id="polygon4485" />
      <path
         style="fill:#dad9d9;stroke-width:0.26458332"
         d="m 185.16967,61.728236 -1.98438,-2.116667 -1.98437,2.116667 -1.98438,-2.116667 -1.98437,2.116667 -1.98438,-2.116667 -1.98437,2.116667 -1.98438,-2.116667 -1.98437,2.116667 -1.98438,-2.116667 -1.98437,2.116667 -1.98438,-2.116667 -1.98437,2.116667 -1.98438,-2.116667 -1.98437,2.116667 -1.98438,-2.116667 -1.98437,2.116667 -1.98438,-2.116667 -1.98437,2.116667 -1.98437,-2.116667 -1.98438,2.116667 -1.98437,-2.116667 -1.98438,2.116667 -1.98437,-2.116667 -1.98438,2.116667 -1.98437,-2.116667 -1.98438,2.116667 -1.98437,-2.116667 -1.98438,2.116667 -1.98437,-2.116667 -1.98438,2.116667 -1.98437,-2.116667 -1.98438,2.116667 -1.98438,-2.116667 -1.98437,2.116667 -1.98438,-2.116667 -1.98437,2.116667 -1.98438,-2.116667 -1.98437,2.116667 -1.98438,-2.116667 -1.98437,2.116667 -1.98438,-2.116667 -1.98437,2.116667 -1.984374,-2.116667 -1.984375,2.116667 -1.984375,-2.116667 -1.719792,1.852083 -0.264583,0.661459 1.984375,-2.116667 1.984375,2.116667 1.984375,-2.116667 1.984374,2.116667 1.98437,-2.116667 1.98438,2.116667 1.98437,-2.116667 1.98438,2.116667 1.98437,-2.116667 1.98438,2.116667 1.98437,-2.116667 1.98438,2.116667 1.98437,-2.116667 1.98438,2.116667 1.98438,-2.116667 1.98437,2.116667 1.98438,-2.116667 1.98437,2.116667 1.98438,-2.116667 1.98437,2.116667 1.98438,-2.116667 1.98437,2.116667 1.98438,-2.116667 1.98437,2.116667 1.98438,-2.116667 1.98437,2.116667 1.98438,-2.116667 1.98437,2.116667 1.98437,-2.116667 1.98438,2.116667 1.98437,-2.116667 1.98438,2.116667 1.98437,-2.116667 1.98438,2.116667 1.98437,-2.116667 1.98438,2.116667 1.98437,-2.116667 1.98438,2.116667 1.98437,-2.116667 1.98438,2.116667 1.98437,-2.116667 1.98438,2.116667 1.98437,-2.116667 1.98438,2.116667 1.98437,-2.116667 1.98438,2.116667 1.98437,-2.116667 1.98438,2.116667 -0.26459,-0.661459 -1.71979,-1.852083 z"
         id="polygon4485-3" />
      <path
         id="path4511"
         d="m 276.45091,61.728236 -1.98438,-2.116667 -1.98437,2.116667 -1.98438,-2.116667 -1.98437,2.116667 -1.98438,-2.116667 -1.98437,2.116667 -1.98438,-2.116667 -1.98437,2.116667 -1.98438,-2.116667 -1.98437,2.116667 -1.98438,-2.116667 -1.98437,2.116667 -1.98438,-2.116667 -1.98437,2.116667 -1.98438,-2.116667 -1.98437,2.116667 -1.98438,-2.116667 -1.98437,2.116667 -1.98437,-2.116667 -1.98438,2.116667 -1.98437,-2.116667 -1.98438,2.116667 -1.98437,-2.116667 -1.98438,2.116667 -1.98437,-2.116667 -1.98438,2.116667 -1.98437,-2.116667 -1.98438,2.116667 -1.98437,-2.116667 -1.98438,2.116667 -1.98437,-2.116667 -1.98438,2.116667 -1.98438,-2.116667 -1.98437,2.116667 -1.98438,-2.116667 -1.98437,2.116667 -1.98438,-2.116667 -1.98437,2.116667 -1.98438,-2.116667 -1.98437,2.116667 -1.98438,-2.116667 -1.98437,2.116667 -1.98437,-2.116667 -1.98438,2.116667 -1.98437,-2.116667 -1.7198,1.852083 -0.26458,0.661459 1.98438,-2.116667 1.98437,2.116667 1.98438,-2.116667 1.98437,2.116667 1.98437,-2.116667 1.98438,2.116667 1.98437,-2.116667 1.98438,2.116667 1.98437,-2.116667 1.98438,2.116667 1.98437,-2.116667 1.98438,2.116667 1.98437,-2.116667 1.98438,2.116667 1.98438,-2.116667 1.98437,2.116667 1.98438,-2.116667 1.98437,2.116667 1.98438,-2.116667 1.98437,2.116667 1.98438,-2.116667 1.98437,2.116667 1.98438,-2.116667 1.98437,2.116667 1.98438,-2.116667 1.98437,2.116667 1.98438,-2.116667 1.98437,2.116667 1.98437,-2.116667 1.98438,2.116667 1.98437,-2.116667 1.98438,2.116667 1.98437,-2.116667 1.98438,2.116667 1.98437,-2.116667 1.98438,2.116667 1.98437,-2.116667 1.98438,2.116667 1.98437,-2.116667 1.98438,2.116667 1.98437,-2.116667 1.98438,2.116667 1.98437,-2.116667 1.98438,2.116667 1.98437,-2.116667 1.98438,2.116667 1.98437,-2.116667 1.98438,2.116667 -0.26459,-0.661459 -1.71979,-1.852083 z"
         style="fill:#dad9d9;stroke-width:0.26458332" />
    </g>
  </g>
</svg>
